<svg width="36" height="52" viewBox="0 0 36 52" fill="none" xmlns="http://www.w3.org/2000/svg">
<path d="M35.6215 20.3299L35.4176 20.2342V20.5483L35.2533 20.7334L34.9579 21.1723L34.7936 21.2826L34.3339 21.8379L34.1488 22.1333L33.9283 22.6283L33.6891 22.6678L33.4687 22.5389L33.3376 21.9502L33.373 21.2722L33.5227 20.6419L33.8867 20.0533L34.6251 18.9488L35.0661 18.0502L35.1202 17.42L35.0495 17.2203L34.9205 17.3493L34.7 17.8984L34.3651 18.4538L33.8701 18.8594L33.3002 19.4085L32.4515 20.4027L32.2872 20.3882L32.2331 20.2176L32.2123 19.812L32.2664 19.057L32.5264 18.2125L32.9861 17.2744L33.5955 16.5194L34.3506 15.8746L34.4213 15.7248L34.3319 15.6541L33.9471 15.8538L33.633 16.0576L33.0984 16.5173L32.4349 17.1059L31.9607 17.7507L31.4989 18.5952L31.2451 19.2795L31.1703 19.9597L31.1349 20.879L31.3554 21.8379L31.5759 22.6678L32.0002 23.972L32.2747 25.5362L32.4391 26.7301V27.3749L32.3683 28.053L32.2581 28.6083L32.0522 29.2323L31.2784 30.2058L30.488 30.9254L29.4751 31.4954L28.5016 31.5494L28.3727 31.0752L28.0232 30.3909L27.5448 29.7315L27.2307 29.3426L26.8106 28.7726L25.9058 27.9094L24.9864 27.1544L24.5829 26.8403L23.3141 25.9813L21.492 24.4525L20.4978 23.219L19.4099 21.4365L19.1146 20.3674L19.1895 19.7038L19.3392 19.5749L19.724 19.8349L20.3335 20.1302L20.8285 20.1094L21.3963 20.3694L22.0058 20.7397L22.3199 20.9934L22.7255 21.2742L23.1456 21.3283L23.2413 21.1432L23.1311 21.1224L23.0021 21.1765L22.7983 21.0475L22.6173 20.773L22.3573 20.3486L21.8581 19.889L21.3631 19.7038L21.0885 19.6498L21.1447 19.5042H21.5295L21.9746 19.6498L22.6194 20.0741L22.9147 20.203L23.025 20.0533L22.8399 19.7995L22.3407 19.3544L21.5669 18.9509L20.633 18.5869L20.4479 18.4371L20.633 18.3082L21.0531 18.512L21.8269 18.641L22.6547 18.9717L23.0936 19.1922L23.8674 19.3024L24.4227 19.2275L24.7327 19.0819L25.157 18.8219L25.3421 18.643L25.3629 18.5141L25.1903 18.5286L25.0259 18.6992L24.4768 18.8802L23.9984 18.955L23.5928 18.901L23.2039 18.591L22.8544 18.1813L22.4343 17.8714L21.8061 17.7424L21.2008 17.5386L20.9408 17.3742L20.9616 17.2286L21.2008 17.264H21.7354L22.2699 17.2286H22.8191L23.1144 17.1746L23.3536 17.3742L23.7384 17.4699H24.0525L24.1981 17.3597L23.9443 17.2848L23.6303 17.081L23.2995 16.771L22.765 16.4902L22.3261 16.4362L21.9226 16.3821L21.7728 16.2926L22.0682 16.1283H22.5466L22.9168 16.2386L23.2808 16.4237L23.8695 16.6774L24.4581 16.6982L24.7722 16.5485L24.8616 16.3488L24.6224 16.2386L24.1274 16.2178L23.7031 16.0722L23.3349 15.7581L22.9293 15.5542L22.3947 15.4648L21.9351 15.3005L21.7354 15.0405L21.7707 14.9115L22.0661 14.9718L22.4363 15.0821L22.6568 15.2464L22.9709 15.2818L23.0063 15.1174L22.6776 14.8574L22.5819 14.6224L23.025 14.6931L23.4451 14.9136L23.9797 14.9739L24.1856 15.3587L24.7347 15.6894L24.7639 15.6853L24.8845 15.6354L25.0301 15.5459L24.9594 15.4357L24.7535 15.4502L24.5683 15.1965L24.1981 14.6266L23.5533 14.0525L22.8939 13.7571L22.7088 13.5366L22.3032 13.0582L21.933 12.8586L21.8789 12.6734L22.0432 12.5632L22.4322 12.6526L23.2018 12.8731L23.572 13.0021L23.8112 13.337L24.196 13.5366H24.4914L24.8803 13.6469L25.3047 13.572L25.469 13.4264L25.2298 13.2226L24.8803 13.1331L24.4747 13.079L24.2355 12.8752L23.9215 12.4155L23.8466 12.1202L23.441 11.7562L23.0021 11.4754L22.5029 11.1654L21.9538 10.6517L21.9184 10.5019H22.0432L22.7629 11.0718L23.4971 11.4962L23.8861 11.7915L24.3811 12.2512L24.8242 12.4904L25.08 12.5653L25.209 12.3614L25.0239 12.2907L24.6391 11.9413L24.5288 11.5523L24.1253 11.1134L23.7904 10.8326L23.6261 10.4125L23.0562 9.56384L22.2824 8.88368L22.2471 8.6632L22.5216 8.69856L22.9106 8.89824L23.5346 9.15824L24.1794 9.1936L24.6578 9.41824L25.1715 9.50768L25.6104 9.37872L25.5751 9.1936L25.0759 9.08336L24.637 8.88368L23.753 8.45936L23.2746 8.19936L23.0187 7.88944L23.1082 7.7792L23.2371 7.86864L23.4368 7.94352L23.6968 7.96432H24.1211L24.4851 7.9248L25.0405 7.88944L25.4648 8.05376L25.9037 8.36784L26.0888 8.42192L26.1096 8.2576L25.9599 8.10784L25.521 7.70224L24.8367 7.3528L24.3416 7.29872L23.4035 7.24464L23.1851 6.98464L22.7067 6.50624L22.1722 6.14224L21.9725 5.95712L22.1368 5.82816L22.3906 5.9384L22.8503 6.1776L23.3703 6.36272L24.0691 6.52704H24.6744L25.1736 7.0824L25.5792 7.3216L25.7248 7.17184L25.1757 6.36272L24.3125 5.73872L23.5928 5.56816L22.9834 4.9296L22.4488 4.61552L21.7146 4.4304L22.1202 4.08096L22.8399 3.84176L23.3744 3.67744L23.4992 3.51312L23.4285 3.38416L23.1331 3.30928L22.8544 3.2552L20.7765 3.29472L20.4063 2.88496L19.9861 2.6104L19.4515 2.3712L18.7527 2.26096H18.1474L17.9831 2.04048L17.4131 1.43104L16.7288 0.807037L16.3087 1.50592L16.2879 1.7264L16.4875 1.9864L16.5083 2.20688L16.3627 2.33584L15.8989 2.3712L15.0544 2.132L14.2245 1.95312L13.8397 1.96768L13.2115 2.09664L13.2864 2.31712L13.6359 2.30256L13.7815 2.32752L13.7773 2.52304L13.5735 2.5688L13.3093 2.53344L12.9099 2.61872L12.6104 2.7144L12.3712 2.72896L12.2963 2.83296L12.3816 2.97856L12.5626 3.01808L12.7331 2.96816L12.9287 2.88288L13.1283 2.87248L13.5527 2.89328L13.8771 2.99312L14.2619 3.0888L14.8256 3.34256L14.8755 3.4632L14.8152 3.55888L14.5511 3.65456L14.3909 3.72944L14.1059 3.91872L13.6712 4.1496L13.1429 4.524L12.5293 4.76944L12.0509 5.08352L11.6162 5.2728L11.2064 5.37264L10.8466 5.38304L10.3515 5.39344L10.1623 5.44336L10.052 5.67424L9.96674 5.92384L9.87106 6.0944L9.63186 6.45424L9.40098 6.8536L9.24706 7.04912L9.2325 7.27376L9.24706 7.58784V7.92272L9.4509 8.10784L9.63186 8.20352L9.8461 8.18896L10.1955 8.09328L10.5907 7.97264L11.1253 7.7584L11.3395 7.7688L11.3895 7.904L11.3395 8.03296L11.1586 8.12864L10.6136 8.33248L10.2039 8.45312L10.1248 8.58832L10.1103 8.73392L10.2455 8.85456L10.5304 8.88992H10.7613L11.0504 8.87952L11.3645 8.80464L11.82 8.56544L12.1195 8.50512L12.3733 8.4552L12.5688 8.51968L12.8538 8.50512L13.1346 8.54048L13.3655 8.67568L13.7253 8.71104L14.1954 8.85664L14.4491 8.892L14.8443 8.82128L15.3498 8.85664L15.5703 8.94192L15.6909 9.14576L15.6659 9.40992L15.6056 9.7344L15.485 10.1088L15.3144 10.5789L15.1439 11.0926L14.9629 11.5627L14.8423 11.8872L14.4325 12.5258L13.9375 13.1498L13.4923 13.7634L12.9287 14.327L12.4087 14.7659L12.0779 15.1154L11.9032 15.6894L11.6619 15.9744L11.352 16.1949L10.9776 16.5048L10.4035 16.8542L9.9189 17.0976L9.60898 17.4512L9.3885 17.7382L9.16802 17.8734L8.8581 18.0274L8.65842 17.9816L8.26322 17.8006L7.82434 17.5157L7.17954 17.2307L6.4557 16.8522L6.0813 16.5672L5.61746 16.1928L5.10786 15.7726L4.55874 15.573L4.0741 15.4877L3.45426 15.6166L3.01538 15.8621L2.63682 16.1262L2.4413 16.6109L2.3061 16.9853L2.15218 17.5594L1.97746 17.9088L1.80274 18.4434L1.77778 19.0819L1.62386 19.4563L1.44914 20.0512L1.29522 20.6461L1.01026 21.2014L0.856338 21.7506L0.766898 22.4349L0.521459 23.009L0.367538 23.3376L0.346738 23.6683L0.325938 24.2237V25.193L0.215698 25.5923L0.280178 25.9418L0.255218 26.5158L0.454898 26.9755L0.608818 27.0858L0.893778 26.9963L1.15794 26.7571L1.5365 26.2974L1.86722 25.7691L1.99618 25.3302L1.9109 24.9766L1.80066 24.5378L1.66546 24.0094L1.5365 23.4562L1.46578 23.036V22.6408L1.55522 22.1957L1.7757 21.5155L1.99618 21.1619L2.19586 20.983L2.34978 20.7438L2.63474 20.7189L2.76994 20.6336L2.96962 20.4526L3.1901 20.2571L3.38978 19.993L3.47506 19.683L3.54578 19.4189L3.56658 19.0653L3.63106 18.7554L3.78498 18.5598L3.9389 18.5141L4.13858 18.5786L4.42354 18.7325L4.73346 19.0861L5.06418 19.5707L5.43858 20.0096L5.83794 20.3632L6.19154 20.6482L6.54098 20.8021L6.65122 21.0226L6.54098 21.1328L6.16658 21.0475L5.63826 21.0018L4.95394 20.8666L4.29458 20.7376L3.50002 20.7126L3.03618 20.7376L2.68258 20.9581L2.30818 21.2867L1.99826 21.815L1.75906 22.4141L1.7341 22.853L1.8693 23.6475L2.17922 24.6605L2.33314 25.455L2.52866 26.2288L2.66386 26.7738L2.72834 27.2834L2.90306 27.8574L3.03826 28.7373L3.16722 29.0472L3.5021 29.3114L3.81202 29.6213L4.16146 30.1517L4.4069 30.7715L4.7813 31.3206L5.33042 31.849L5.7277 32.0944L5.99186 32.1152L6.21234 32.0507L6.34754 31.7408L6.4973 31.4766L6.58674 31.1022V30.2432L6.4765 29.9978C6.4557 29.9978 6.4557 29.8438 6.4557 29.823L6.40994 29.6691L6.22898 29.405L5.89826 29.0742L5.28466 28.8101L5.06002 28.7394L5.0205 28.365L5.0413 28.1258L4.62114 27.6411L4.35698 27.0213L4.1365 26.1414L3.95762 25.3282L3.65394 24.6896L3.5437 23.9158L3.71842 23.452L4.02834 23.2773H4.26754L4.62114 23.5872L5.13074 23.8971L5.65906 24.0926L6.93826 24.7125L7.5581 25.0661V25.3947L8.12802 25.7234L8.8581 25.9688H10.3807L10.2704 26.2538L10.2059 26.4077L10.4015 26.7779L10.7759 27.3333L11.3749 27.9282L12.0987 28.7227L12.7186 29.2718L13.8771 30.16L14.8152 30.6634L15.5203 31.0378L16.4251 31.6514L17.2592 32.2462L17.9789 32.8557L18.7277 33.8686L18.7631 34.293L18.9336 34.7318L19.3933 35.0626L19.8135 35.2269L20.0735 35.1915L20.2794 34.9918L20.5747 34.6778L20.6455 34.2534L20.9949 33.6482L21.0698 33.1843L21.1259 32.6706L21.1613 32.265L21.2757 32.0112L21.5107 31.8968H21.7354L21.7499 32.0674L21.5856 32.2462L21.44 32.6352L21.3298 32.8744V33.1698L21.2903 33.7938L21.2008 34.1078L20.9263 34.5821L20.556 35.1915L20.1879 35.855L19.9695 36.7182L19.8592 37.623L19.9695 38.6318L20.1151 39.2205L20.4645 39.9942L20.9096 40.9136L21.2591 41.6333L21.7375 42.3883L22.3074 43.0872L22.4176 43.3264V43.4907L22.3427 43.6946L22.1431 44.0253L21.829 44.4642L21.1842 45.2941L20.5394 45.993L19.9507 46.6378L19.697 46.7875L19.177 46.9872L18.8671 47.2826L18.7027 47.6174L18.3325 48.0771L17.9144 48.5368L17.4007 49.0714L17.0866 49.6205L16.9015 50.1758L16.7912 50.6355L16.812 51.0058L17.0325 51.2408H17.8416L18.1911 51.2054L18.5571 50.987L19.0355 50.7666L19.1104 50.5814H19.2747L19.5285 50.4712L19.7677 50.2466L19.8987 49.3667L19.8239 49.1816L19.7885 48.9965L19.9195 49.0318L20.0631 49.0714L20.2128 48.9611L20.452 48.8114L20.7058 48.4806L21.0199 48.0355L21.1842 47.632L21.2195 47.3013L21.4255 47.1515L21.7208 46.9872L21.96 46.8416L22.1597 46.4381L22.584 45.995L23.3765 45.2608L23.9797 44.8573L24.5891 44.5224L24.7327 44.3768L24.7888 44.227L24.9178 44.0627L24.8283 43.8443L24.8096 43.4387L24.7285 43.0602L24.6328 42.8397L24.4227 42.4798L24.0879 42.0597L23.9235 41.7456L23.8882 41.4149V40.9718L23.9631 40.7181L24.1627 40.0338L24.3666 39.703L24.5871 39.5741L24.9906 39.3203L25.469 38.9106L26.1138 38.3614L26.5527 37.9018L26.9957 37.388L27.4554 36.868L27.7861 36.2835L28.0607 35.7843L28.3207 35.2144L28.5058 34.5842L28.5619 33.9997L28.5973 33.5546L28.7471 33.409L28.9114 33.3694L29.057 33.4651L29.1859 33.775L29.2213 34.1994L29.2816 34.6029L29.2421 34.8774L29.2067 35.3018V36.2066L29.317 36.92L29.4459 37.1051L29.5562 37.0906L29.6103 36.9616L29.5354 36.6662V36.167L29.6851 35.7469L29.7559 35.1374L29.8307 34.7131L29.9264 34.5134H30.0367L30.1261 34.6029L30.2155 34.9523L30.2904 35.2872L30.2551 35.8155L30.1448 36.5352L29.8099 37.2341L29.5 37.8976L29.3149 38.4675L29.2795 38.817L29.3149 39.2205L29.4439 39.6094H29.6831L29.8079 39.4389L29.7371 39.2538L29.6831 38.923L29.9015 38.6277L30.1573 38.2782L30.3279 37.9496L30.7314 37.3048L31.0621 36.7162L31.2077 36.0714L31.3367 35.2227V34.3824L31.1723 33.7938L30.8416 33.3341L30.8021 33.1157L30.9519 33.0408L31.137 33.1302L31.3762 33.4256L31.6715 33.9602L31.7963 34.5842L31.8712 35.4141L32.0563 35.9882L32.0771 36.0027L32.3309 36.5726L32.4952 36.633L32.5701 36.4832L32.5514 36.3938L32.4266 35.9694L32.4079 35.5451L32.4266 34.9211L32.5368 34.2222V33.8728L32.4973 33.5774L32.2019 32.9867L31.9482 32.5624L32.0376 32.3981L32.3871 32.3232L32.8655 32.1048L33.3792 31.8302L33.8389 31.4267L34.4275 30.6322L34.7624 29.9728L35.037 29.3446L35.1264 28.3358L35.1472 27.431L35.0016 26.312L34.8311 25.5029L34.6855 24.673L34.596 23.8098L34.6667 23.2606L34.8165 22.5763L35.1264 21.8962L35.5695 21.1973L35.7338 20.7522L35.7691 20.5317L35.6215 20.3299ZM10.597 7.0096L10.4514 7.1552L10.2475 7.2696L9.97298 7.32992L9.8773 7.2696L9.84194 7.07408L9.92306 6.79952L10.1186 6.52912L10.2787 6.45008L10.4243 6.46464L10.5991 6.61024L10.6781 6.7392L10.597 7.0096ZM11.3146 6.83072L11.2647 6.85568L11.1648 6.85984L11.0858 6.82032L11.0213 6.74544L11.0317 6.656L11.1066 6.53536L11.1669 6.49584H11.2459L11.3167 6.5104L11.3416 6.58528L11.352 6.71632L11.3146 6.83072ZM12.2048 7.65024L12.1299 7.6856H12.0343L11.9802 7.65648L11.9511 7.57536L11.9615 7.47552L12.0155 7.4152L12.0863 7.41104L12.1611 7.43184L12.1965 7.48592L12.2215 7.57536L12.2048 7.65024ZM13.9063 5.07312L13.7919 5.10432L13.6525 5.13968L13.4986 5.26864L13.1533 5.47872L12.6791 5.60768L12.3837 5.68256L12.0987 5.70336L11.9531 5.6888L12.184 5.49328L12.6083 5.28944L13.0327 5.10016L13.4362 4.91088L13.6213 4.82144L13.7607 4.80064L13.8751 4.8256L13.9645 4.9712L13.9063 5.07312ZM1.0477 25.7733L0.897938 25.7379L0.823059 25.5923L0.972818 25.5174L1.10386 25.532L1.13922 25.661L1.0477 25.7733ZM2.98002 18.0523L2.87602 18.4413L2.74082 18.8802L2.50162 19.2504L2.37266 19.2858L2.3269 19.1859V18.9904L2.35186 18.7262L2.44754 18.227L2.65762 17.863L2.76786 17.7341L2.92802 17.6883L2.98834 17.7778L2.98002 18.0523ZM4.04498 16.588L3.80578 16.6774L3.57698 16.7024L3.43762 16.6483L3.40226 16.5485L3.44178 16.4133L3.56242 16.328L3.81202 16.2989L3.94098 16.2885L4.03042 16.3134L4.10946 16.3883L4.11362 16.4736L4.04498 16.588ZM5.99602 19.2213L5.9461 19.2254L5.82546 19.1506L5.65698 19.0549L5.51138 18.9342L5.37618 18.799L5.31586 18.7242L5.3013 18.6139L5.33042 18.5598L5.38034 18.564L5.46562 18.5786L5.5613 18.6638L5.67154 18.7637L5.84626 18.8677L5.95026 18.9925L6.01474 19.0882L6.0189 19.1734L5.99602 19.2213ZM2.71586 21.8421L2.62642 21.9669L2.53698 22.0022L2.47666 21.9523L2.48082 21.7734L2.63058 21.5134L2.67634 21.4386L2.75122 21.4032L2.82194 21.449V21.5987L2.77618 21.7027L2.71586 21.8421ZM3.33986 26.4826L3.31074 26.5283H3.27538L3.2109 26.4742L3.16098 26.3786L3.08194 26.2038L2.96754 25.975L2.85314 25.6152L2.79282 25.2762L2.78242 24.881L2.8365 24.492L2.86562 24.4462H2.9197L2.97378 24.4962L3.02786 24.7312L3.03202 24.9704L3.1277 25.2741L3.2421 25.5986L3.29202 25.8835L3.36274 26.3474L3.33986 26.4826ZM5.56754 30.732L5.62786 30.7174L5.77346 30.7486L5.83794 30.8194L5.8525 30.9046L5.83794 31.0045L5.75266 31.069L5.64866 31.0502L5.57378 30.9795L5.54258 30.8256L5.56754 30.732ZM7.01106 24.0053L6.8613 24.0157L6.66578 23.9866L6.53058 23.9262L6.2165 23.7307L5.90658 23.4998L5.55714 23.2898L5.4365 23.2003L5.59666 23.1962L5.77138 23.2606L6.0709 23.3355L6.34546 23.4707L6.66578 23.6101L6.89458 23.7141L7.01522 23.8243L7.03602 23.9242L7.01106 24.0053ZM8.67298 19.6997L8.4629 20.2883L8.27778 20.852L7.9533 21.2555L7.78898 21.3803L7.61426 21.4448L7.51442 21.3741L7.50402 21.2451L7.64338 21.0954L7.78898 20.8562L7.9741 20.4526L8.08434 20.0678L8.18418 19.6893L8.3797 19.3253L8.51074 19.1402L8.62098 19.109L8.72082 19.1485L8.75202 19.2691L8.67298 19.6997ZM16.6831 8.0184L16.8474 7.80832L17.0367 7.62944L17.2072 7.51504L17.332 7.50464L17.4173 7.55872V7.71264L17.3715 7.8832L17.1823 8.06416L16.9576 8.20352L16.7288 8.26384L16.6186 8.22848L16.604 8.13904L16.6831 8.0184ZM16.0154 4.14336L16.1755 4.08928L16.2858 4.03936L16.4251 4.08928L16.4709 4.18912L16.3669 4.30976L16.2213 4.36384L16.0466 4.37424L15.9821 4.2536L16.0154 4.14336ZM14.6259 5.43712L14.5615 5.2624L14.6571 5.06688L14.8672 4.89216L15.2021 4.8776L15.4475 4.92336L15.6368 5.0544L15.7325 5.27904L15.8115 5.51824L15.797 5.72832L15.5869 5.80736H15.3623L15.0919 5.69712L14.8527 5.56816L14.6259 5.43712ZM15.4455 7.99968L15.1605 8.06416H14.9047L14.8589 7.97888L14.9234 7.88944L14.9983 7.84368L15.4975 7.49008L15.8011 7.3008L15.9863 7.1864H16.0507L16.0611 7.3216L15.9363 7.42144L15.876 7.62736L15.7221 7.86656L15.4455 7.99968ZM12.1195 17.1288L12.0842 17.0747L12.0946 16.9395L12.184 16.8397L12.4981 16.7107L13.1533 16.5069L13.8085 16.4258H14.2079L14.5365 16.4965L14.8464 16.6504L15.0919 16.8896L15.1064 17.0248L15.0773 17.1205L14.9733 17.1413L14.8131 17.1205L14.5677 17.0498L14.3368 16.9811L14.0519 16.9499H13.6983L13.3987 16.9458L13.1346 16.9707L12.8392 17.0206L12.6042 17.0851L12.3754 17.135L12.2256 17.1454L12.1195 17.1288ZM16.265 30.6821L15.9301 30.472L15.3664 30.0976L14.4928 29.509L14.1392 29.2698L13.7648 28.9765L13.3551 28.6021L13.0555 28.367L12.6957 28.0176L12.4607 27.7722L12.3151 27.5475L12.261 27.2771L12.2714 27.0275L12.3671 26.9318L12.5314 26.9422L12.7914 27.0982L13.0701 27.3686L13.276 27.6182L13.4965 27.8387L13.7107 28.1029L13.9811 28.3982L14.237 28.6832L15.0752 29.4112L15.5391 29.8251L15.953 30.1995L16.2879 30.5136L16.3523 30.6176L16.3981 30.6925L16.265 30.6821ZM16.4896 19.265L16.3856 19.3253L16.1319 19.3294L15.9613 19.2899L15.8656 19.1651L15.7866 19.0653V18.9051L15.9114 18.745L16.1007 18.5952L16.2795 18.5702L16.4439 18.616L16.4938 18.7054L16.5146 18.9051L16.5395 19.1152L16.4896 19.265ZM16.993 11.0344L16.889 11.4192L16.6539 12.0328L16.3399 12.5528L15.9904 13.2018L15.4309 13.9859L15.0066 14.431L14.7112 14.5454L14.6155 14.5413L14.601 14.4664L14.6904 14.2563L15.0503 13.701L15.3456 13.0915L15.6098 12.5674L16.0799 11.6584L16.525 10.9491L16.7538 10.7286L16.9285 10.6995L17.0034 10.8202L16.993 11.0344ZM18.0184 8.36784L17.9643 8.50304L17.7688 8.73184L17.4984 8.8608L17.228 8.97104L16.9472 8.9752H16.7725L16.7122 8.89408L16.7767 8.77968L16.9306 8.70896L17.201 8.57792L17.5109 8.38864L17.6565 8.28464L17.877 8.17856L18.0163 8.21392V8.36784H18.0184ZM19.4807 16.7939L19.3808 16.823L19.2519 16.8126L19.1666 16.7274L19.1874 16.6525L19.2727 16.5922L19.4016 16.5818L19.5119 16.6712L19.516 16.7461L19.4807 16.7939ZM19.6304 16.3051H19.4807L19.3995 16.2594V16.1491L19.4349 16.0742L19.5139 16.0493H19.62L19.7199 16.1138L19.7303 16.1928L19.6304 16.3051ZM19.905 15.5501L19.8031 15.6L19.6991 15.6146L19.5888 15.5896L19.5535 15.5147V15.4253L19.6429 15.3608L19.7531 15.34H19.8592L19.9237 15.3941L19.9383 15.4794L19.905 15.5501ZM20.0443 14.9157L19.9091 14.9552L19.7594 14.951L19.6803 14.897L19.6762 14.8366L19.7011 14.7472L19.8197 14.6931L19.9507 14.6744L20.061 14.7285L20.1005 14.8325L20.0443 14.9157ZM20.3688 14.0275L20.2939 14.1274L20.2232 14.2168L20.0839 14.2459H19.9445L19.8239 14.1856L19.8135 14.0899L19.8987 14.0005L19.9632 13.9256L20.0589 13.8902L20.2128 13.8445H20.3335L20.3875 13.909L20.3688 14.0275ZM20.5685 13.2829L20.504 13.3869L20.3896 13.4077L20.269 13.4389L20.1192 13.4347L20.0547 13.3598L20.0651 13.2496L20.1151 13.1747L20.2149 13.104L20.3688 13.0832L20.5082 13.1123L20.5685 13.1976V13.2829ZM20.7786 12.7338L20.6247 12.7982L20.504 12.8378H20.3543L20.2939 12.8274L20.2191 12.8024L20.1795 12.7275L20.1983 12.6318L20.2981 12.5424L20.3834 12.4966L20.4791 12.4571L20.6143 12.453L20.7453 12.4987L20.7994 12.6027L20.7786 12.7338ZM20.7994 11.8789L20.7453 11.9683L20.6496 12.0474L20.5103 12.0973L20.3459 12.1118L20.2107 12.0931L20.1754 12.012L20.1962 11.9475L20.2503 11.908L20.4895 11.7832L20.6039 11.7582L20.7453 11.7728L20.7994 11.8227V11.8789ZM20.3335 9.85712H20.4187L20.4645 9.828L20.4832 9.73856L20.5019 9.66992L20.5435 9.62L20.6184 9.61584L20.7079 9.6408L20.789 9.68656L20.7994 9.78224L20.789 9.93616L20.6704 10.0402L20.5144 10.115L20.4499 10.1046L20.3855 10.0797L20.321 9.99856L20.3106 9.90912L20.3335 9.85712ZM20.3335 9.21856V9.14368L20.4 9.0792L20.504 9.03968L20.6288 9.03552L20.7037 9.06048L20.7245 9.12496L20.6829 9.18944L20.6184 9.26016L20.5123 9.28512H20.4021L20.3335 9.21856ZM20.3397 11.2403L20.4291 11.1862L20.5352 11.1613L20.6392 11.1509L20.7141 11.155L20.7432 11.2008V11.2757L20.7079 11.3547L20.6371 11.4338L20.4624 11.5086L20.3771 11.4982L20.2981 11.4733L20.2773 11.388L20.2939 11.2923L20.3397 11.2403ZM20.789 10.6267L20.764 10.6912L20.6538 10.7661L20.504 10.8202L20.4208 10.7994L20.3397 10.7536L20.3251 10.6725L20.3355 10.5726L20.3959 10.5123L20.4811 10.452L20.6059 10.427L20.712 10.4229L20.7827 10.4437L20.8077 10.5144L20.789 10.6267ZM20.8285 8.51344L20.8139 8.59872L20.7599 8.6736L20.6704 8.70896L20.5851 8.72976L20.5103 8.74016L20.4104 8.72976L20.3855 8.66944L20.4104 8.5904L20.4707 8.53632L20.5373 8.50096L20.6475 8.42608L20.7619 8.43024L20.8285 8.51344ZM20.6746 7.7792L20.7349 7.81456L20.7453 7.89984L20.7391 7.98096L20.6455 8.06624L20.556 8.1016L20.4957 8.0912L20.4499 8.06624V7.98512L20.4541 7.89984L20.5186 7.8312L20.5789 7.79584L20.6746 7.7792ZM20.5581 7.36528L20.5331 7.45472L20.4666 7.50464L20.4063 7.54L20.3251 7.5504L20.2607 7.51088L20.2461 7.44016L20.2752 7.37984L20.3355 7.29872L20.3959 7.2696L20.4749 7.26544L20.5415 7.30496L20.5581 7.36528ZM19.7407 5.7512L19.8863 5.7408L20.0901 5.66176L20.2752 5.62224L20.4291 5.61184L20.5082 5.68672L20.3979 5.85104L20.2877 5.88016L20.1047 5.94464L19.8655 6.07984L19.6367 6.20048L19.3725 6.31072L19.2831 6.32112L19.2082 6.29616L19.2186 6.18592L19.1791 6.08192V5.89264L19.2643 5.6784L19.3829 5.54944L19.4599 5.4496L19.5389 5.34976H19.6595L19.7427 5.43504L19.724 5.64512L19.7407 5.7512ZM19.6554 3.7648L19.7095 3.80016L19.6907 3.85424L19.6096 3.94992L19.4994 3.96032L19.3683 3.9416L19.2935 3.90624L19.2394 3.84176L19.3039 3.78768L19.3975 3.74816L19.5431 3.744L19.6554 3.7648ZM18.9669 2.99104L19.2165 2.96608L19.3517 3.01184L19.4578 3.06592L19.4619 3.15536L19.3725 3.19488L19.2331 3.20528L19.0979 3.19488L18.9919 3.17408L18.9024 3.1096L18.9669 2.99104ZM20.8992 28.9245L20.7786 29.0347L20.6683 29.1595L20.5581 29.3904L20.5227 29.5506L20.4479 29.6109L20.3023 29.5922L20.2315 29.5069L20.2565 29.2032L20.3355 28.8226L20.3751 28.6125L20.4707 28.3483L20.5415 28.2693L20.6455 28.2485H20.7848L20.8451 28.3046L20.9491 28.4586L20.9699 28.7539L20.8992 28.9245ZM21.1384 25.3136L20.5082 24.9829L20.1795 24.6688L19.6304 24.1197L19.1312 23.4894L18.6923 22.776L18.3429 21.892L18.1973 21.2826L18.2659 20.9331L18.4656 20.879L18.6695 20.9747L18.8005 21.3387L18.9107 21.8733L19.1104 22.4286L19.6304 23.2378L20.3293 24.2674L21.1384 25.3136ZM21.1842 36.0547L21.0427 36.4437L20.9741 36.633L20.8431 36.9283L20.7432 37.2736L20.7141 37.3734L20.6787 37.4379H20.5831L20.5082 37.2133L20.504 36.9574L20.5581 36.608L20.6829 36.1296L20.8888 35.8342L21.0739 35.6054L21.2383 35.5846L21.284 35.7344L21.1842 36.0547ZM21.9122 41.2797L21.8768 41.2838L21.8123 41.2547L21.6917 41.08L21.5128 40.7846L21.4275 40.5891L21.3776 40.3187V40.0691L21.388 39.9194L21.4234 39.8736H21.5024L21.5877 39.909L21.6979 40.0379L21.7791 40.2626L21.8331 40.5621L21.8373 40.8013L21.8415 40.8866L21.8872 41.001L21.933 41.2318L21.9122 41.2797ZM18.2223 49.9138L18.1474 50.0594L18.0579 50.1946L17.9123 50.2902L17.773 50.3194H17.7127L17.6482 50.2694L17.6274 50.1654L17.6523 50.0344L17.7272 49.8846L17.9311 49.6808L18.085 49.5851L18.1952 49.581L18.2514 49.6267L18.2659 49.7307L18.2223 49.9138ZM19.5909 47.7069L19.5139 47.8109L19.4203 47.865L19.3059 47.9045L19.2207 47.8795L19.1707 47.7901L19.1811 47.7006L19.2664 47.5946L19.437 47.4906L19.5618 47.4698L19.6221 47.5051L19.6387 47.5946L19.5909 47.7069ZM22.6464 44.6597L22.4259 44.9842L22.1306 45.3294L21.7957 45.6539L21.4421 46.0242L21.1114 46.3237L20.8514 46.5587L20.7058 46.6544L20.6101 46.6502L20.5643 46.5754L20.5851 46.4506L20.9907 46.0013L21.5586 45.3877L22.2491 44.693L22.3781 44.5536L22.5736 44.4288L22.6443 44.4434L22.7026 44.5182L22.6464 44.6597ZM23.9194 43.6758L24.0047 43.6446L24.1149 43.6488L24.1648 43.6738L24.169 43.7278L24.1253 43.7986L24.0255 43.888L23.936 43.9878H23.8757L23.8071 43.9483L23.7904 43.863L23.8195 43.7778L23.9194 43.6758ZM27.6051 33.6232L27.5843 33.7875L27.5344 33.9414L27.5032 34.0808L27.3992 34.1411L27.3035 34.1162L27.2557 34.0267L27.2245 33.7126L27.0144 33.4235L26.9957 33.1843L27.1143 33.0346L27.2391 32.995L27.3597 33.0054L27.4595 33.0949L27.5739 33.2405L27.6051 33.4048V33.6232ZM33.8243 27.9157L33.8139 28.1507L33.7203 28.6645L33.5893 29.1034L33.4395 29.4882L33.2149 29.9062L32.9591 30.2661L32.5743 30.7154L32.1354 31.1355L31.9107 31.1896L31.7901 31.1355L31.7714 30.9754L31.8671 30.7611L31.996 30.5261L32.2311 30.2162L32.4848 29.8709L32.724 29.4965L32.9591 29.1117L33.1379 28.7373L33.244 28.3525L33.3335 27.9136L33.3543 27.4248L33.373 26.9859L33.3439 26.6011L33.2981 26.156L33.2586 25.7358L33.2336 25.5008L33.3626 25.3718L33.4479 25.4176L33.5123 25.6214L33.6413 26.025L33.7474 26.5096L33.8223 26.9734V27.9157H33.8243Z" fill="#FCFCFC"/>
</svg>
